<svg width="1140" height="256" viewBox="0 0 1140 256" fill="none" xmlns="http://www.w3.org/2000/svg">
<path d="M128.025 239.288C128.761 239.672 129.337 240.208 129.753 240.896C130.169 241.568 130.377 242.336 130.377 243.2C130.377 244.576 129.889 245.72 128.913 246.632C127.937 247.544 126.745 248 125.337 248H118.137V231.2H124.809C126.185 231.2 127.345 231.648 128.289 232.544C129.249 233.44 129.729 234.544 129.729 235.856C129.729 237.296 129.161 238.44 128.025 239.288ZM124.809 233.792H120.897V238.208H124.809C125.417 238.208 125.929 238 126.345 237.584C126.761 237.152 126.969 236.624 126.969 236C126.969 235.376 126.761 234.856 126.345 234.44C125.929 234.008 125.417 233.792 124.809 233.792ZM120.897 245.408H125.337C125.977 245.408 126.513 245.184 126.945 244.736C127.393 244.272 127.617 243.712 127.617 243.056C127.617 242.4 127.393 241.848 126.945 241.4C126.513 240.936 125.977 240.704 125.337 240.704H120.897V245.408ZM132.477 242.432V231.2H135.237V242.264C135.237 243.304 135.541 244.128 136.149 244.736C136.773 245.328 137.669 245.624 138.837 245.624C140.005 245.624 140.893 245.328 141.501 244.736C142.125 244.128 142.437 243.304 142.437 242.264V231.2H145.197V242.432C145.197 244.208 144.605 245.64 143.421 246.728C142.253 247.784 140.725 248.312 138.837 248.312C136.949 248.312 135.421 247.784 134.253 246.728C133.069 245.64 132.477 244.208 132.477 242.432ZM158.451 242.6V231.2H161.211V248H159.051L151.131 236.6V248H148.371V231.2H150.531L158.451 242.6ZM164.567 248V231.2H167.327V248H164.567ZM180.764 242.6V231.2H183.524V248H181.364L173.444 236.6V248H170.684V231.2H172.844L180.764 242.6ZM194.823 239.312H203.223V240.464C203.223 242.768 202.463 244.656 200.943 246.128C199.439 247.584 197.455 248.312 194.991 248.312C192.399 248.312 190.255 247.472 188.559 245.792C186.879 244.112 186.039 242.048 186.039 239.6C186.039 237.168 186.879 235.112 188.559 233.432C190.255 231.736 192.351 230.888 194.847 230.888C196.399 230.888 197.823 231.248 199.119 231.968C200.431 232.672 201.447 233.64 202.167 234.872L199.791 236.24C199.343 235.424 198.679 234.776 197.799 234.296C196.919 233.816 195.935 233.576 194.847 233.576C193.087 233.576 191.639 234.152 190.503 235.304C189.367 236.472 188.799 237.912 188.799 239.624C188.799 241.352 189.367 242.784 190.503 243.92C191.671 245.056 193.175 245.624 195.015 245.624C196.487 245.624 197.695 245.28 198.639 244.592C199.583 243.904 200.183 242.968 200.439 241.784H194.823V239.312ZM225.666 248H222.69L221.514 244.616H214.362L213.186 248H210.186L216.282 231.2H219.594L225.666 248ZM217.938 234.44L215.274 242.024H220.602L217.938 234.44ZM232.643 248.312C231.027 248.312 229.651 247.952 228.515 247.232C227.395 246.496 226.611 245.48 226.163 244.184L228.539 242.792C229.211 244.68 230.603 245.624 232.715 245.624C233.739 245.624 234.515 245.424 235.043 245.024C235.571 244.624 235.835 244.088 235.835 243.416C235.835 242.744 235.555 242.224 234.995 241.856C234.435 241.488 233.443 241.088 232.019 240.656C230.563 240.224 229.387 239.712 228.491 239.12C227.403 238.352 226.859 237.224 226.859 235.736C226.859 234.248 227.387 233.072 228.443 232.208C229.483 231.328 230.755 230.888 232.259 230.888C233.587 230.888 234.755 231.216 235.763 231.872C236.787 232.512 237.571 233.416 238.115 234.584L235.787 235.928C235.083 234.36 233.907 233.576 232.259 233.576C231.459 233.576 230.819 233.768 230.339 234.152C229.859 234.52 229.619 235.024 229.619 235.664C229.619 236.288 229.859 236.784 230.339 237.152C230.819 237.504 231.707 237.88 233.003 238.28C233.803 238.552 234.267 238.712 234.395 238.76C234.603 238.824 235.019 238.984 235.643 239.24C236.155 239.448 236.563 239.672 236.867 239.912C238.115 240.888 238.691 242.04 238.595 243.368C238.595 244.888 238.043 246.096 236.939 246.992C235.867 247.872 234.435 248.312 232.643 248.312ZM254.896 245.792C253.216 247.472 251.16 248.312 248.728 248.312C246.296 248.312 244.232 247.472 242.536 245.792C240.856 244.096 240.016 242.032 240.016 239.6C240.016 237.168 240.856 235.112 242.536 233.432C244.232 231.736 246.296 230.888 248.728 230.888C251.16 230.888 253.216 231.736 254.896 233.432C256.592 235.112 257.44 237.168 257.44 239.6C257.44 242.032 256.592 244.096 254.896 245.792ZM244.48 243.92C245.648 245.056 247.064 245.624 248.728 245.624C250.408 245.624 251.816 245.056 252.952 243.92C254.104 242.768 254.68 241.328 254.68 239.6C254.68 237.872 254.104 236.44 252.952 235.304C251.816 234.152 250.408 233.576 248.728 233.576C247.048 233.576 245.632 234.152 244.48 235.304C243.344 236.44 242.776 237.872 242.776 239.6C242.776 241.312 243.344 242.752 244.48 243.92ZM264.917 248.312C263.301 248.312 261.925 247.952 260.789 247.232C259.669 246.496 258.885 245.48 258.437 244.184L260.813 242.792C261.485 244.68 262.877 245.624 264.989 245.624C266.013 245.624 266.789 245.424 267.317 245.024C267.845 244.624 268.109 244.088 268.109 243.416C268.109 242.744 267.829 242.224 267.269 241.856C266.709 241.488 265.717 241.088 264.293 240.656C262.837 240.224 261.661 239.712 260.765 239.12C259.677 238.352 259.133 237.224 259.133 235.736C259.133 234.248 259.661 233.072 260.717 232.208C261.757 231.328 263.029 230.888 264.533 230.888C265.861 230.888 267.029 231.216 268.037 231.872C269.061 232.512 269.845 233.416 270.389 234.584L268.061 235.928C267.357 234.36 266.181 233.576 264.533 233.576C263.733 233.576 263.093 233.768 262.613 234.152C262.133 234.52 261.893 235.024 261.893 235.664C261.893 236.288 262.133 236.784 262.613 237.152C263.093 237.504 263.981 237.88 265.277 238.28C266.077 238.552 266.541 238.712 266.669 238.76C266.877 238.824 267.293 238.984 267.917 239.24C268.429 239.448 268.837 239.672 269.141 239.912C270.389 240.888 270.965 242.04 270.869 243.368C270.869 244.888 270.317 246.096 269.213 246.992C268.141 247.872 266.709 248.312 264.917 248.312ZM273.129 248V231.2H275.889V248H273.129ZM289.014 231.2H292.158L286.302 241.328V248H283.542V241.328L277.686 231.2H280.83L284.934 238.64L289.014 231.2ZM305.557 248.312C303.941 248.312 302.565 247.952 301.429 247.232C300.309 246.496 299.525 245.48 299.077 244.184L301.453 242.792C302.125 244.68 303.517 245.624 305.629 245.624C306.653 245.624 307.429 245.424 307.957 245.024C308.485 244.624 308.749 244.088 308.749 243.416C308.749 242.744 308.469 242.224 307.909 241.856C307.349 241.488 306.357 241.088 304.933 240.656C303.477 240.224 302.301 239.712 301.405 239.12C300.317 238.352 299.773 237.224 299.773 235.736C299.773 234.248 300.301 233.072 301.357 232.208C302.397 231.328 303.669 230.888 305.173 230.888C306.501 230.888 307.669 231.216 308.677 231.872C309.701 232.512 310.485 233.416 311.029 234.584L308.701 235.928C307.997 234.36 306.821 233.576 305.173 233.576C304.373 233.576 303.733 233.768 303.253 234.152C302.773 234.52 302.533 235.024 302.533 235.664C302.533 236.288 302.773 236.784 303.253 237.152C303.733 237.504 304.621 237.88 305.917 238.28C306.717 238.552 307.181 238.712 307.309 238.76C307.517 238.824 307.933 238.984 308.557 239.24C309.069 239.448 309.477 239.672 309.781 239.912C311.029 240.888 311.605 242.04 311.509 243.368C311.509 244.888 310.957 246.096 309.853 246.992C308.781 247.872 307.349 248.312 305.557 248.312ZM327.596 248H324.62L323.444 244.616H316.292L315.116 248H312.116L318.212 231.2H321.524L327.596 248ZM319.868 234.44L317.204 242.024H322.532L319.868 234.44ZM339.291 239.288C340.027 239.672 340.603 240.208 341.019 240.896C341.435 241.568 341.643 242.336 341.643 243.2C341.643 244.576 341.155 245.72 340.179 246.632C339.203 247.544 338.011 248 336.603 248H329.403V231.2H336.075C337.451 231.2 338.611 231.648 339.555 232.544C340.515 233.44 340.995 234.544 340.995 235.856C340.995 237.296 340.427 238.44 339.291 239.288ZM336.075 233.792H332.163V238.208H336.075C336.683 238.208 337.195 238 337.611 237.584C338.027 237.152 338.235 236.624 338.235 236C338.235 235.376 338.027 234.856 337.611 234.44C337.195 234.008 336.683 233.792 336.075 233.792ZM332.163 245.408H336.603C337.243 245.408 337.779 245.184 338.211 244.736C338.659 244.272 338.883 243.712 338.883 243.056C338.883 242.4 338.659 241.848 338.211 241.4C337.779 240.936 337.243 240.704 336.603 240.704H332.163V245.408ZM357.971 248H354.995L353.819 244.616H346.667L345.491 248H342.491L348.587 231.2H351.899L357.971 248ZM350.243 234.44L347.579 242.024H352.907L350.243 234.44ZM369.666 239.288C370.402 239.672 370.978 240.208 371.394 240.896C371.81 241.568 372.018 242.336 372.018 243.2C372.018 244.576 371.53 245.72 370.554 246.632C369.578 247.544 368.386 248 366.978 248H359.778V231.2H366.45C367.826 231.2 368.986 231.648 369.93 232.544C370.89 233.44 371.37 234.544 371.37 235.856C371.37 237.296 370.802 238.44 369.666 239.288ZM366.45 233.792H362.538V238.208H366.45C367.058 238.208 367.57 238 367.986 237.584C368.402 237.152 368.61 236.624 368.61 236C368.61 235.376 368.402 234.856 367.986 234.44C367.57 234.008 367.058 233.792 366.45 233.792ZM362.538 245.408H366.978C367.618 245.408 368.154 245.184 368.586 244.736C369.034 244.272 369.258 243.712 369.258 243.056C369.258 242.4 369.034 241.848 368.586 241.4C368.154 240.936 367.618 240.704 366.978 240.704H362.538V245.408ZM377.186 231.2V245.36H384.026V248H374.426V231.2H377.186ZM400.463 248H397.487L396.311 244.616H389.159L387.983 248H384.983L391.079 231.2H394.391L400.463 248ZM392.735 234.44L390.071 242.024H395.399L392.735 234.44ZM414.87 248H411.846L408.294 241.88H405.03V248H402.27V231.2H408.99C410.494 231.2 411.766 231.728 412.806 232.784C413.862 233.808 414.39 235.08 414.39 236.6C414.39 237.672 414.078 238.656 413.454 239.552C412.846 240.432 412.046 241.072 411.054 241.472L414.87 248ZM408.99 233.792H405.03V239.408H408.99C409.726 239.408 410.35 239.136 410.862 238.592C411.374 238.048 411.63 237.384 411.63 236.6C411.63 235.816 411.374 235.152 410.862 234.608C410.35 234.064 409.726 233.792 408.99 233.792ZM416.989 248V231.2H419.749V248H416.989ZM422.698 237.488C422.698 236.976 422.866 236.552 423.202 236.216C423.554 235.864 423.986 235.688 424.498 235.688C424.994 235.656 425.418 235.832 425.77 236.216C426.122 236.6 426.298 237.024 426.298 237.488C426.298 237.952 426.122 238.376 425.77 238.76C425.386 239.112 424.962 239.288 424.498 239.288C424.034 239.288 423.61 239.112 423.226 238.76C422.842 238.408 422.666 237.984 422.698 237.488ZM424.498 244.688C424.994 244.688 425.418 244.864 425.77 245.216C426.122 245.568 426.298 245.992 426.298 246.488C426.298 246.984 426.122 247.408 425.77 247.76C425.418 248.112 424.994 248.288 424.498 248.288C424.002 248.288 423.578 248.112 423.226 247.76C422.874 247.408 422.698 246.984 422.698 246.488C422.698 245.992 422.866 245.568 423.202 245.216C423.554 244.864 423.986 244.688 424.498 244.688Z" fill="white"/>
<rect x="116" width="1024" height="167" fill="white"/>
<path d="M192.591 61.288C191.055 61.288 189.735 60.928 188.631 60.208C187.543 59.472 186.783 58.464 186.351 57.184L187.791 56.344C188.095 57.4 188.655 58.216 189.471 58.792C190.303 59.368 191.351 59.656 192.615 59.656C193.847 59.656 194.815 59.384 195.519 58.84C196.223 58.296 196.575 57.56 196.575 56.632C196.575 55.752 196.255 55.088 195.615 54.64C194.991 54.192 193.935 53.728 192.447 53.248C190.671 52.656 189.519 52.192 188.991 51.856C187.711 51.088 187.071 49.976 187.071 48.52C187.071 47.096 187.567 45.976 188.559 45.16C189.535 44.328 190.759 43.912 192.231 43.912C193.495 43.912 194.615 44.248 195.591 44.92C196.567 45.576 197.295 46.448 197.775 47.536L196.359 48.328C195.591 46.472 194.215 45.544 192.231 45.544C191.175 45.544 190.327 45.808 189.687 46.336C189.063 46.848 188.751 47.552 188.751 48.448C188.751 49.296 189.039 49.92 189.615 50.32C190.207 50.736 191.159 51.16 192.471 51.592L193.767 52.048C194.039 52.128 194.423 52.272 194.919 52.48C195.463 52.688 195.839 52.864 196.047 53.008C196.895 53.52 197.431 53.992 197.655 54.424C198.055 55.064 198.255 55.784 198.255 56.584C198.255 58.008 197.735 59.152 196.695 60.016C195.655 60.864 194.287 61.288 192.591 61.288ZM206.907 49V50.536H203.451V57.808C203.451 58.464 203.579 58.936 203.835 59.224C204.091 59.496 204.475 59.64 204.987 59.656C205.499 59.656 206.139 59.64 206.907 59.608V61C205.195 61.256 203.923 61.136 203.091 60.64C202.275 60.128 201.867 59.184 201.867 57.808V50.536H199.347V49H201.867V46.12L203.451 45.64V49H206.907ZM219.141 51.352V49H220.725V61H219.141V58.648C218.037 60.408 216.421 61.288 214.293 61.288C212.581 61.288 211.117 60.68 209.901 59.464C208.701 58.248 208.101 56.76 208.101 55C208.101 53.24 208.701 51.752 209.901 50.536C211.117 49.32 212.581 48.712 214.293 48.712C216.421 48.712 218.037 49.592 219.141 51.352ZM211.053 58.384C211.965 59.296 213.085 59.752 214.413 59.752C215.741 59.752 216.861 59.296 217.773 58.384C218.685 57.44 219.141 56.312 219.141 55C219.141 53.672 218.685 52.552 217.773 51.64C216.861 50.712 215.741 50.248 214.413 50.248C213.085 50.248 211.965 50.712 211.053 51.64C210.141 52.552 209.685 53.672 209.685 55C209.685 56.312 210.141 57.44 211.053 58.384ZM230.438 49V50.536H226.982V57.808C226.982 58.464 227.11 58.936 227.366 59.224C227.622 59.496 228.006 59.64 228.518 59.656C229.03 59.656 229.67 59.64 230.438 59.608V61C228.726 61.256 227.454 61.136 226.622 60.64C225.806 60.128 225.398 59.184 225.398 57.808V50.536H222.878V49H225.398V46.12L226.982 45.64V49H230.438ZM235.022 45.304C235.022 45.624 234.91 45.896 234.686 46.12C234.462 46.344 234.19 46.456 233.87 46.456C233.55 46.456 233.278 46.344 233.054 46.12C232.83 45.896 232.718 45.624 232.718 45.304C232.718 44.984 232.83 44.712 233.054 44.488C233.278 44.264 233.55 44.152 233.87 44.152C234.19 44.152 234.462 44.264 234.686 44.488C234.91 44.712 235.022 44.984 235.022 45.304ZM234.662 61H233.078V49H234.662V61ZM239.272 52.144C239.272 53.072 240.096 53.752 241.744 54.184C242.208 54.296 242.512 54.376 242.656 54.424C242.8 54.456 243.08 54.544 243.496 54.688C243.928 54.816 244.224 54.928 244.384 55.024C244.56 55.12 244.8 55.272 245.104 55.48C245.408 55.672 245.624 55.872 245.752 56.08C245.88 56.272 246 56.528 246.112 56.848C246.224 57.152 246.28 57.48 246.28 57.832C246.28 58.856 245.872 59.688 245.056 60.328C244.272 60.968 243.232 61.288 241.936 61.288C240.816 61.288 239.848 61.04 239.032 60.544C238.216 60.032 237.64 59.36 237.304 58.528L238.648 57.736C238.872 58.36 239.272 58.856 239.848 59.224C240.44 59.576 241.136 59.752 241.936 59.752C242.752 59.752 243.416 59.592 243.928 59.272C244.44 58.952 244.696 58.472 244.696 57.832C244.696 56.904 243.872 56.224 242.224 55.792C241.76 55.68 241.456 55.608 241.312 55.576C241.168 55.528 240.88 55.44 240.448 55.312C240.032 55.168 239.736 55.048 239.56 54.952C239.4 54.856 239.168 54.712 238.864 54.52C238.56 54.312 238.344 54.112 238.216 53.92C238.088 53.712 237.968 53.456 237.856 53.152C237.744 52.832 237.688 52.496 237.688 52.144C237.688 51.168 238.072 50.352 238.84 49.696C239.64 49.04 240.624 48.712 241.792 48.712C242.752 48.712 243.6 48.928 244.336 49.36C245.088 49.792 245.64 50.392 245.992 51.16L244.672 51.928C244.224 50.808 243.264 50.248 241.792 50.248C241.072 50.248 240.472 50.416 239.992 50.752C239.512 51.088 239.272 51.552 239.272 52.144ZM254.813 49V50.536H251.357V57.808C251.357 58.464 251.485 58.936 251.741 59.224C251.997 59.496 252.381 59.64 252.893 59.656C253.405 59.656 254.045 59.64 254.813 59.608V61C253.101 61.256 251.829 61.136 250.997 60.64C250.181 60.128 249.773 59.184 249.773 57.808V50.536H247.253V49H249.773V46.12L251.357 45.64V49H254.813ZM259.397 45.304C259.397 45.624 259.285 45.896 259.061 46.12C258.837 46.344 258.565 46.456 258.245 46.456C257.925 46.456 257.653 46.344 257.429 46.12C257.205 45.896 257.093 45.624 257.093 45.304C257.093 44.984 257.205 44.712 257.429 44.488C257.653 44.264 257.925 44.152 258.245 44.152C258.565 44.152 258.837 44.264 259.061 44.488C259.285 44.712 259.397 44.984 259.397 45.304ZM259.037 61H257.453V49H259.037V61ZM265.663 54.76L272.095 61H269.983L263.983 55.216V61H262.399V44.2H263.983V54.304L269.695 49H271.855L265.663 54.76ZM283.383 51.352V49H284.967V61H283.383V58.648C282.279 60.408 280.663 61.288 278.535 61.288C276.823 61.288 275.359 60.68 274.143 59.464C272.943 58.248 272.343 56.76 272.343 55C272.343 53.24 272.943 51.752 274.143 50.536C275.359 49.32 276.823 48.712 278.535 48.712C280.663 48.712 282.279 49.592 283.383 51.352ZM275.295 58.384C276.207 59.296 277.327 59.752 278.655 59.752C279.983 59.752 281.103 59.296 282.015 58.384C282.927 57.44 283.383 56.312 283.383 55C283.383 53.672 282.927 52.552 282.015 51.64C281.103 50.712 279.983 50.248 278.655 50.248C277.327 50.248 276.207 50.712 275.295 51.64C274.383 52.552 273.927 53.672 273.927 55C273.927 56.312 274.383 57.44 275.295 58.384ZM307.113 48.712C308.473 48.712 309.561 49.144 310.377 50.008C311.193 50.872 311.601 52.04 311.601 53.512V61H310.017V53.512C310.017 52.488 309.753 51.688 309.225 51.112C308.697 50.536 307.985 50.248 307.089 50.248C306.049 50.248 305.233 50.592 304.641 51.28C304.049 51.968 303.753 52.992 303.753 54.352V61H302.169V53.512C302.169 52.472 301.921 51.672 301.425 51.112C300.929 50.536 300.241 50.248 299.361 50.248C298.353 50.248 297.521 50.6 296.865 51.304C296.225 52.008 295.905 53.024 295.905 54.352V61H294.321V49H295.905V50.752C296.769 49.392 297.993 48.712 299.577 48.712C301.321 48.712 302.537 49.44 303.225 50.896C304.089 49.44 305.385 48.712 307.113 48.712ZM324.984 51.352V49H326.568V61H324.984V58.648C323.88 60.408 322.264 61.288 320.136 61.288C318.424 61.288 316.96 60.68 315.744 59.464C314.544 58.248 313.944 56.76 313.944 55C313.944 53.24 314.544 51.752 315.744 50.536C316.96 49.32 318.424 48.712 320.136 48.712C322.264 48.712 323.88 49.592 324.984 51.352ZM316.896 58.384C317.808 59.296 318.928 59.752 320.256 59.752C321.584 59.752 322.704 59.296 323.616 58.384C324.528 57.44 324.984 56.312 324.984 55C324.984 53.672 324.528 52.552 323.616 51.64C322.704 50.712 321.584 50.248 320.256 50.248C318.928 50.248 317.808 50.712 316.896 51.64C315.984 52.552 315.528 53.672 315.528 55C315.528 56.312 315.984 57.44 316.896 58.384ZM330.642 44.2H332.562L331.122 49.6H329.682L330.642 44.2ZM337.272 61H335.688V43.48H337.272V61ZM349.081 55.288V49H350.665V61H349.081V59.128C348.185 60.568 346.841 61.288 345.049 61.288C343.609 61.288 342.465 60.848 341.617 59.968C340.769 59.072 340.345 57.872 340.345 56.368V49H341.929V56.368C341.929 57.44 342.209 58.272 342.769 58.864C343.345 59.456 344.153 59.752 345.193 59.752C346.393 59.752 347.337 59.376 348.025 58.624C348.729 57.872 349.081 56.76 349.081 55.288ZM366.808 48.712C368.168 48.712 369.256 49.144 370.072 50.008C370.888 50.872 371.296 52.04 371.296 53.512V61H369.712V53.512C369.712 52.488 369.448 51.688 368.92 51.112C368.392 50.536 367.68 50.248 366.784 50.248C365.744 50.248 364.928 50.592 364.336 51.28C363.744 51.968 363.448 52.992 363.448 54.352V61H361.864V53.512C361.864 52.472 361.616 51.672 361.12 51.112C360.624 50.536 359.936 50.248 359.056 50.248C358.048 50.248 357.216 50.6 356.56 51.304C355.92 52.008 355.6 53.024 355.6 54.352V61H354.016V49H355.6V50.752C356.464 49.392 357.688 48.712 359.272 48.712C361.016 48.712 362.232 49.44 362.92 50.896C363.784 49.44 365.08 48.712 366.808 48.712ZM384.416 59.488C383.184 60.688 381.696 61.288 379.952 61.288C378.176 61.288 376.68 60.688 375.464 59.488C374.248 58.272 373.64 56.776 373.64 55C373.64 53.224 374.248 51.736 375.464 50.536C376.68 49.32 378.176 48.712 379.952 48.712C381.712 48.712 383.2 49.32 384.416 50.536C385.648 51.736 386.264 53.224 386.264 55C386.264 56.76 385.648 58.256 384.416 59.488ZM376.592 58.384C377.504 59.296 378.624 59.752 379.952 59.752C381.28 59.752 382.4 59.296 383.312 58.384C384.224 57.44 384.68 56.312 384.68 55C384.68 53.672 384.224 52.552 383.312 51.64C382.4 50.712 381.28 50.248 379.952 50.248C378.624 50.248 377.504 50.712 376.592 51.64C375.68 52.552 375.224 53.672 375.224 55C375.224 56.312 375.68 57.44 376.592 58.384ZM395.04 49V50.536H391.584V57.808C391.584 58.464 391.712 58.936 391.968 59.224C392.224 59.496 392.608 59.64 393.12 59.656C393.632 59.656 394.272 59.64 395.04 59.608V61C393.328 61.256 392.056 61.136 391.224 60.64C390.408 60.128 390 59.184 390 57.808V50.536H387.48V49H390V46.12L391.584 45.64V49H395.04ZM399.264 61H397.68V43.48H399.264V61ZM412.945 51.352V49H414.529V61H412.945V58.648C411.841 60.408 410.225 61.288 408.097 61.288C406.385 61.288 404.921 60.68 403.705 59.464C402.505 58.248 401.905 56.76 401.905 55C401.905 53.24 402.505 51.752 403.705 50.536C404.921 49.32 406.385 48.712 408.097 48.712C410.225 48.712 411.841 49.592 412.945 51.352ZM404.857 58.384C405.769 59.296 406.889 59.752 408.217 59.752C409.545 59.752 410.665 59.296 411.577 58.384C412.489 57.44 412.945 56.312 412.945 55C412.945 53.672 412.489 52.552 411.577 51.64C410.665 50.712 409.545 50.248 408.217 50.248C406.889 50.248 405.769 50.712 404.857 51.64C403.945 52.552 403.489 53.672 403.489 55C403.489 56.312 403.945 57.44 404.857 58.384ZM419.467 49V50.992C420.203 49.536 421.467 48.808 423.259 48.808V50.344C422.107 50.344 421.187 50.68 420.499 51.352C419.811 52.008 419.467 53 419.467 54.328V61H417.883V49H419.467ZM427.374 45.304C427.374 45.624 427.262 45.896 427.038 46.12C426.814 46.344 426.542 46.456 426.222 46.456C425.902 46.456 425.63 46.344 425.406 46.12C425.182 45.896 425.07 45.624 425.07 45.304C425.07 44.984 425.182 44.712 425.406 44.488C425.63 44.264 425.902 44.152 426.222 44.152C426.542 44.152 426.814 44.264 427.038 44.488C427.262 44.712 427.374 44.984 427.374 45.304ZM427.014 61H425.43V49H427.014V61ZM440.695 51.352V49H442.279V60.52C442.279 62.248 441.687 63.608 440.503 64.6C439.319 65.592 437.903 66.088 436.255 66.088C433.455 66.088 431.559 65.112 430.567 63.16L431.959 62.368C432.679 63.824 434.111 64.552 436.255 64.552C437.631 64.552 438.711 64.192 439.495 63.472C440.295 62.752 440.695 61.768 440.695 60.52V58.648C439.591 60.408 437.975 61.288 435.847 61.288C434.135 61.288 432.671 60.68 431.455 59.464C430.255 58.248 429.655 56.76 429.655 55C429.655 53.24 430.255 51.752 431.455 50.536C432.671 49.32 434.135 48.712 435.847 48.712C437.975 48.712 439.591 49.592 440.695 51.352ZM432.607 58.384C433.519 59.296 434.639 59.752 435.967 59.752C437.295 59.752 438.415 59.296 439.327 58.384C440.239 57.44 440.695 56.312 440.695 55C440.695 53.672 440.239 52.552 439.327 51.64C438.415 50.712 437.295 50.248 435.967 50.248C434.639 50.248 433.519 50.712 432.607 51.64C431.695 52.552 431.239 53.672 431.239 55C431.239 56.312 431.695 57.44 432.607 58.384ZM455.953 51.352V49H457.537V61H455.953V58.648C454.849 60.408 453.233 61.288 451.105 61.288C449.393 61.288 447.929 60.68 446.713 59.464C445.513 58.248 444.913 56.76 444.913 55C444.913 53.24 445.513 51.752 446.713 50.536C447.929 49.32 449.393 48.712 451.105 48.712C453.233 48.712 454.849 49.592 455.953 51.352ZM447.865 58.384C448.777 59.296 449.897 59.752 451.225 59.752C452.553 59.752 453.673 59.296 454.585 58.384C455.497 57.44 455.953 56.312 455.953 55C455.953 53.672 455.497 52.552 454.585 51.64C453.673 50.712 452.553 50.248 451.225 50.248C449.897 50.248 448.777 50.712 447.865 51.64C446.953 52.552 446.497 53.672 446.497 55C446.497 56.312 446.953 57.44 447.865 58.384ZM477.211 51.352V49H478.795V65.8H477.211V58.648C476.107 60.408 474.491 61.288 472.363 61.288C470.651 61.288 469.187 60.68 467.971 59.464C466.771 58.248 466.171 56.76 466.171 55C466.171 53.24 466.771 51.752 467.971 50.536C469.187 49.32 470.651 48.712 472.363 48.712C474.491 48.712 476.107 49.592 477.211 51.352ZM469.123 58.384C470.035 59.296 471.155 59.752 472.483 59.752C473.811 59.752 474.931 59.296 475.843 58.384C476.755 57.44 477.211 56.312 477.211 55C477.211 53.672 476.755 52.552 475.843 51.64C474.931 50.712 473.811 50.248 472.483 50.248C471.155 50.248 470.035 50.712 469.123 51.64C468.211 52.552 467.755 53.672 467.755 55C467.755 56.312 468.211 57.44 469.123 58.384ZM492.469 51.352V49H494.053V61H492.469V58.648C491.365 60.408 489.749 61.288 487.621 61.288C485.909 61.288 484.445 60.68 483.229 59.464C482.029 58.248 481.429 56.76 481.429 55C481.429 53.24 482.029 51.752 483.229 50.536C484.445 49.32 485.909 48.712 487.621 48.712C489.749 48.712 491.365 49.592 492.469 51.352ZM484.381 58.384C485.293 59.296 486.413 59.752 487.741 59.752C489.069 59.752 490.189 59.296 491.101 58.384C492.013 57.44 492.469 56.312 492.469 55C492.469 53.672 492.013 52.552 491.101 51.64C490.189 50.712 489.069 50.248 487.741 50.248C486.413 50.248 485.293 50.712 484.381 51.64C483.469 52.552 483.013 53.672 483.013 55C483.013 56.312 483.469 57.44 484.381 58.384ZM498.991 49V50.992C499.727 49.536 500.991 48.808 502.783 48.808V50.344C501.631 50.344 500.711 50.68 500.023 51.352C499.335 52.008 498.991 53 498.991 54.328V61H497.407V49H498.991ZM514.547 51.352V49H516.131V61H514.547V58.648C513.443 60.408 511.827 61.288 509.699 61.288C507.987 61.288 506.523 60.68 505.307 59.464C504.107 58.248 503.507 56.76 503.507 55C503.507 53.24 504.107 51.752 505.307 50.536C506.523 49.32 507.987 48.712 509.699 48.712C511.827 48.712 513.443 49.592 514.547 51.352ZM506.459 58.384C507.371 59.296 508.491 59.752 509.819 59.752C511.147 59.752 512.267 59.296 513.179 58.384C514.091 57.44 514.547 56.312 514.547 55C514.547 53.672 514.091 52.552 513.179 51.64C512.267 50.712 511.147 50.248 509.819 50.248C508.491 50.248 507.371 50.712 506.459 51.64C505.547 52.552 505.091 53.672 505.091 55C505.091 56.312 505.547 57.44 506.459 58.384ZM529.805 51.352V49H531.389V60.52C531.389 62.248 530.797 63.608 529.613 64.6C528.429 65.592 527.013 66.088 525.365 66.088C522.565 66.088 520.669 65.112 519.677 63.16L521.069 62.368C521.789 63.824 523.221 64.552 525.365 64.552C526.741 64.552 527.821 64.192 528.605 63.472C529.405 62.752 529.805 61.768 529.805 60.52V58.648C528.701 60.408 527.085 61.288 524.957 61.288C523.245 61.288 521.781 60.68 520.565 59.464C519.365 58.248 518.765 56.76 518.765 55C518.765 53.24 519.365 51.752 520.565 50.536C521.781 49.32 523.245 48.712 524.957 48.712C527.085 48.712 528.701 49.592 529.805 51.352ZM521.717 58.384C522.629 59.296 523.749 59.752 525.077 59.752C526.405 59.752 527.525 59.296 528.437 58.384C529.349 57.44 529.805 56.312 529.805 55C529.805 53.672 529.349 52.552 528.437 51.64C527.525 50.712 526.405 50.248 525.077 50.248C523.749 50.248 522.629 50.712 521.717 51.64C520.805 52.552 520.349 53.672 520.349 55C520.349 56.312 520.805 57.44 521.717 58.384ZM545.062 51.352V49H546.647V61H545.062V58.648C543.959 60.408 542.343 61.288 540.215 61.288C538.503 61.288 537.039 60.68 535.823 59.464C534.623 58.248 534.023 56.76 534.023 55C534.023 53.24 534.623 51.752 535.823 50.536C537.039 49.32 538.503 48.712 540.215 48.712C542.343 48.712 543.959 49.592 545.062 51.352ZM536.975 58.384C537.887 59.296 539.007 59.752 540.335 59.752C541.663 59.752 542.783 59.296 543.695 58.384C544.607 57.44 545.062 56.312 545.062 55C545.062 53.672 544.607 52.552 543.695 51.64C542.783 50.712 541.663 50.248 540.335 50.248C539.007 50.248 537.887 50.712 536.975 51.64C536.063 52.552 535.607 53.672 535.607 55C535.607 56.312 536.063 57.44 536.975 58.384ZM555.616 48.712C557.056 48.712 558.2 49.16 559.048 50.056C559.896 50.936 560.32 52.128 560.32 53.632V61H558.736V53.632C558.736 52.56 558.448 51.728 557.872 51.136C557.312 50.544 556.512 50.248 555.472 50.248C554.272 50.248 553.32 50.624 552.616 51.376C551.928 52.128 551.584 53.24 551.584 54.712V61H550V49H551.584V50.872C552.48 49.432 553.824 48.712 555.616 48.712ZM573.703 51.352V44.2H575.287V61H573.703V58.648C572.599 60.408 570.983 61.288 568.855 61.288C567.143 61.288 565.679 60.68 564.463 59.464C563.263 58.248 562.663 56.76 562.663 55C562.663 53.24 563.263 51.752 564.463 50.536C565.679 49.32 567.143 48.712 568.855 48.712C570.983 48.712 572.599 49.592 573.703 51.352ZM565.615 58.384C566.527 59.296 567.647 59.752 568.975 59.752C570.303 59.752 571.423 59.296 572.335 58.384C573.247 57.44 573.703 56.312 573.703 55C573.703 53.672 573.247 52.552 572.335 51.64C571.423 50.712 570.303 50.248 568.975 50.248C567.647 50.248 566.527 50.712 565.615 51.64C564.703 52.552 564.247 53.672 564.247 55C564.247 56.312 564.703 57.44 565.615 58.384ZM588.961 51.352V49H590.545V61H588.961V58.648C587.857 60.408 586.241 61.288 584.113 61.288C582.401 61.288 580.937 60.68 579.721 59.464C578.521 58.248 577.921 56.76 577.921 55C577.921 53.24 578.521 51.752 579.721 50.536C580.937 49.32 582.401 48.712 584.113 48.712C586.241 48.712 587.857 49.592 588.961 51.352ZM580.873 58.384C581.785 59.296 582.905 59.752 584.233 59.752C585.561 59.752 586.681 59.296 587.593 58.384C588.505 57.44 588.961 56.312 588.961 55C588.961 53.672 588.505 52.552 587.593 51.64C586.681 50.712 585.561 50.248 584.233 50.248C582.905 50.248 581.785 50.712 580.873 51.64C579.961 52.552 579.505 53.672 579.505 55C579.505 56.312 579.961 57.44 580.873 58.384ZM594.619 58.96H596.539L595.099 64.36H593.659L594.619 58.96ZM615.984 51.352V44.2H617.568V61H615.984V58.648C614.88 60.408 613.264 61.288 611.136 61.288C609.424 61.288 607.96 60.68 606.744 59.464C605.544 58.248 604.944 56.76 604.944 55C604.944 53.24 605.544 51.752 606.744 50.536C607.96 49.32 609.424 48.712 611.136 48.712C613.264 48.712 614.88 49.592 615.984 51.352ZM607.896 58.384C608.808 59.296 609.928 59.752 611.256 59.752C612.584 59.752 613.704 59.296 614.616 58.384C615.528 57.44 615.984 56.312 615.984 55C615.984 53.672 615.528 52.552 614.616 51.64C613.704 50.712 612.584 50.248 611.256 50.248C609.928 50.248 608.808 50.712 607.896 51.64C606.984 52.552 606.528 53.672 606.528 55C606.528 56.312 606.984 57.44 607.896 58.384ZM629.37 55.288V49H630.954V61H629.37V59.128C628.474 60.568 627.13 61.288 625.338 61.288C623.898 61.288 622.754 60.848 621.906 59.968C621.058 59.072 620.634 57.872 620.634 56.368V49H622.218V56.368C622.218 57.44 622.498 58.272 623.058 58.864C623.634 59.456 624.442 59.752 625.482 59.752C626.682 59.752 627.626 59.376 628.314 58.624C629.018 57.872 629.37 56.76 629.37 55.288ZM639.921 48.712C641.361 48.712 642.505 49.16 643.353 50.056C644.201 50.936 644.625 52.128 644.625 53.632V61H643.041V53.632C643.041 52.56 642.753 51.728 642.177 51.136C641.617 50.544 640.817 50.248 639.777 50.248C638.577 50.248 637.625 50.624 636.921 51.376C636.233 52.128 635.889 53.24 635.889 54.712V61H634.305V49H635.889V50.872C636.785 49.432 638.129 48.712 639.921 48.712ZM652.205 59.056L656.093 49H657.773L652.637 62.104C652.157 63.32 651.485 64.256 650.621 64.912C649.773 65.584 648.829 65.88 647.789 65.8V64.312C649.229 64.488 650.325 63.656 651.077 61.816L651.389 61.072L646.013 49H647.693L652.205 59.056ZM669.275 59.488C668.043 60.688 666.555 61.288 664.811 61.288C663.035 61.288 661.539 60.688 660.323 59.488C659.107 58.272 658.499 56.776 658.499 55C658.499 53.224 659.107 51.736 660.323 50.536C661.539 49.32 663.035 48.712 664.811 48.712C666.571 48.712 668.059 49.32 669.275 50.536C670.507 51.736 671.123 53.224 671.123 55C671.123 56.76 670.507 58.256 669.275 59.488ZM661.451 58.384C662.363 59.296 663.483 59.752 664.811 59.752C666.139 59.752 667.259 59.296 668.171 58.384C669.083 57.44 669.539 56.312 669.539 55C669.539 53.672 669.083 52.552 668.171 51.64C667.259 50.712 666.139 50.248 664.811 50.248C663.483 50.248 662.363 50.712 661.451 51.64C660.539 52.552 660.083 53.672 660.083 55C660.083 56.312 660.539 57.44 661.451 58.384ZM684.094 51.352V44.2H685.678V61H684.094V58.648C682.99 60.408 681.374 61.288 679.246 61.288C677.534 61.288 676.07 60.68 674.854 59.464C673.654 58.248 673.054 56.76 673.054 55C673.054 53.24 673.654 51.752 674.854 50.536C676.07 49.32 677.534 48.712 679.246 48.712C681.374 48.712 682.99 49.592 684.094 51.352ZM676.006 58.384C676.918 59.296 678.038 59.752 679.366 59.752C680.694 59.752 681.814 59.296 682.726 58.384C683.638 57.44 684.094 56.312 684.094 55C684.094 53.672 683.638 52.552 682.726 51.64C681.814 50.712 680.694 50.248 679.366 50.248C678.038 50.248 676.918 50.712 676.006 51.64C675.094 52.552 674.638 53.672 674.638 55C674.638 56.312 675.094 57.44 676.006 58.384ZM699.352 51.352V49H700.936V61H699.352V58.648C698.248 60.408 696.632 61.288 694.504 61.288C692.792 61.288 691.328 60.68 690.112 59.464C688.912 58.248 688.312 56.76 688.312 55C688.312 53.24 688.912 51.752 690.112 50.536C691.328 49.32 692.792 48.712 694.504 48.712C696.632 48.712 698.248 49.592 699.352 51.352ZM691.264 58.384C692.176 59.296 693.296 59.752 694.624 59.752C695.952 59.752 697.072 59.296 697.984 58.384C698.896 57.44 699.352 56.312 699.352 55C699.352 53.672 698.896 52.552 697.984 51.64C697.072 50.712 695.952 50.248 694.624 50.248C693.296 50.248 692.176 50.712 691.264 51.64C690.352 52.552 689.896 53.672 689.896 55C689.896 56.312 690.352 57.44 691.264 58.384ZM539.628 74.304C539.628 74.624 539.516 74.896 539.292 75.12C539.068 75.344 538.796 75.456 538.476 75.456C538.156 75.456 537.884 75.344 537.66 75.12C537.436 74.896 537.324 74.624 537.324 74.304C537.324 73.984 537.436 73.712 537.66 73.488C537.884 73.264 538.156 73.152 538.476 73.152C538.796 73.152 539.068 73.264 539.292 73.488C539.516 73.712 539.628 73.984 539.628 74.304ZM539.268 90H537.684V78H539.268V90ZM543.877 81.144C543.877 82.072 544.701 82.752 546.349 83.184C546.813 83.296 547.117 83.376 547.261 83.424C547.405 83.456 547.685 83.544 548.101 83.688C548.533 83.816 548.829 83.928 548.989 84.024C549.165 84.12 549.405 84.272 549.709 84.48C550.013 84.672 550.229 84.872 550.357 85.08C550.485 85.272 550.605 85.528 550.717 85.848C550.829 86.152 550.885 86.48 550.885 86.832C550.885 87.856 550.477 88.688 549.661 89.328C548.877 89.968 547.837 90.288 546.541 90.288C545.421 90.288 544.453 90.04 543.637 89.544C542.821 89.032 542.245 88.36 541.909 87.528L543.253 86.736C543.477 87.36 543.877 87.856 544.453 88.224C545.045 88.576 545.741 88.752 546.541 88.752C547.357 88.752 548.021 88.592 548.533 88.272C549.045 87.952 549.301 87.472 549.301 86.832C549.301 85.904 548.477 85.224 546.829 84.792C546.365 84.68 546.061 84.608 545.917 84.576C545.773 84.528 545.485 84.44 545.053 84.312C544.637 84.168 544.341 84.048 544.165 83.952C544.005 83.856 543.773 83.712 543.469 83.52C543.165 83.312 542.949 83.112 542.821 82.92C542.693 82.712 542.573 82.456 542.461 82.152C542.349 81.832 542.293 81.496 542.293 81.144C542.293 80.168 542.677 79.352 543.445 78.696C544.245 78.04 545.229 77.712 546.397 77.712C547.357 77.712 548.205 77.928 548.941 78.36C549.693 78.792 550.245 79.392 550.597 80.16L549.277 80.928C548.829 79.808 547.869 79.248 546.397 79.248C545.677 79.248 545.077 79.416 544.597 79.752C544.117 80.088 543.877 80.552 543.877 81.144ZM559.026 77.712C560.466 77.712 561.61 78.16 562.458 79.056C563.306 79.936 563.73 81.128 563.73 82.632V90H562.146V82.632C562.146 81.56 561.858 80.728 561.282 80.136C560.722 79.544 559.922 79.248 558.882 79.248C557.682 79.248 556.73 79.624 556.026 80.376C555.338 81.128 554.994 82.24 554.994 83.712V90H553.41V73.2H554.994V79.872C555.89 78.432 557.234 77.712 559.026 77.712ZM577.113 80.352V73.2H578.697V90H577.113V87.648C576.009 89.408 574.393 90.288 572.265 90.288C570.553 90.288 569.089 89.68 567.873 88.464C566.673 87.248 566.073 85.76 566.073 84C566.073 82.24 566.673 80.752 567.873 79.536C569.089 78.32 570.553 77.712 572.265 77.712C574.393 77.712 576.009 78.592 577.113 80.352ZM569.025 87.384C569.937 88.296 571.057 88.752 572.385 88.752C573.713 88.752 574.833 88.296 575.745 87.384C576.657 86.44 577.113 85.312 577.113 84C577.113 82.672 576.657 81.552 575.745 80.64C574.833 79.712 573.713 79.248 572.385 79.248C571.057 79.248 569.937 79.712 569.025 80.64C568.113 81.552 567.657 82.672 567.657 84C567.657 85.312 568.113 86.44 569.025 87.384ZM592.371 80.352V78H593.955V90H592.371V87.648C591.267 89.408 589.651 90.288 587.523 90.288C585.811 90.288 584.347 89.68 583.131 88.464C581.931 87.248 581.331 85.76 581.331 84C581.331 82.24 581.931 80.752 583.131 79.536C584.347 78.32 585.811 77.712 587.523 77.712C589.651 77.712 591.267 78.592 592.371 80.352ZM584.283 87.384C585.195 88.296 586.315 88.752 587.643 88.752C588.971 88.752 590.091 88.296 591.003 87.384C591.915 86.44 592.371 85.312 592.371 84C592.371 82.672 591.915 81.552 591.003 80.64C590.091 79.712 588.971 79.248 587.643 79.248C586.315 79.248 585.195 79.712 584.283 80.64C583.371 81.552 582.915 82.672 582.915 84C582.915 85.312 583.371 86.44 584.283 87.384ZM605.253 74.304C605.253 74.624 605.141 74.896 604.917 75.12C604.693 75.344 604.421 75.456 604.101 75.456C603.781 75.456 603.509 75.344 603.285 75.12C603.061 74.896 602.949 74.624 602.949 74.304C602.949 73.984 603.061 73.712 603.285 73.488C603.509 73.264 603.781 73.152 604.101 73.152C604.421 73.152 604.693 73.264 604.917 73.488C605.141 73.712 605.253 73.984 605.253 74.304ZM604.893 90H603.309V78H604.893V90ZM609.502 81.144C609.502 82.072 610.326 82.752 611.974 83.184C612.438 83.296 612.742 83.376 612.886 83.424C613.03 83.456 613.31 83.544 613.726 83.688C614.158 83.816 614.454 83.928 614.614 84.024C614.79 84.12 615.03 84.272 615.334 84.48C615.638 84.672 615.854 84.872 615.982 85.08C616.11 85.272 616.23 85.528 616.342 85.848C616.454 86.152 616.51 86.48 616.51 86.832C616.51 87.856 616.102 88.688 615.286 89.328C614.502 89.968 613.462 90.288 612.166 90.288C611.046 90.288 610.078 90.04 609.262 89.544C608.446 89.032 607.87 88.36 607.534 87.528L608.878 86.736C609.102 87.36 609.502 87.856 610.078 88.224C610.67 88.576 611.366 88.752 612.166 88.752C612.982 88.752 613.646 88.592 614.158 88.272C614.67 87.952 614.926 87.472 614.926 86.832C614.926 85.904 614.102 85.224 612.454 84.792C611.99 84.68 611.686 84.608 611.542 84.576C611.398 84.528 611.11 84.44 610.678 84.312C610.262 84.168 609.966 84.048 609.79 83.952C609.63 83.856 609.398 83.712 609.094 83.52C608.79 83.312 608.574 83.112 608.446 82.92C608.318 82.712 608.198 82.456 608.086 82.152C607.974 81.832 607.918 81.496 607.918 81.144C607.918 80.168 608.302 79.352 609.07 78.696C609.87 78.04 610.854 77.712 612.022 77.712C612.982 77.712 613.83 77.928 614.566 78.36C615.318 78.792 615.87 79.392 616.222 80.16L614.902 80.928C614.454 79.808 613.494 79.248 612.022 79.248C611.302 79.248 610.702 79.416 610.222 79.752C609.742 80.088 609.502 80.552 609.502 81.144ZM624.651 77.712C626.091 77.712 627.235 78.16 628.083 79.056C628.931 79.936 629.355 81.128 629.355 82.632V90H627.771V82.632C627.771 81.56 627.483 80.728 626.907 80.136C626.347 79.544 625.547 79.248 624.507 79.248C623.307 79.248 622.355 79.624 621.651 80.376C620.963 81.128 620.619 82.24 620.619 83.712V90H619.035V73.2H620.619V79.872C621.515 78.432 622.859 77.712 624.651 77.712ZM634.002 90H632.418V72.48H634.002V90ZM647.684 80.352V78H649.268V90H647.684V87.648C646.58 89.408 644.964 90.288 642.836 90.288C641.124 90.288 639.66 89.68 638.444 88.464C637.244 87.248 636.644 85.76 636.644 84C636.644 82.24 637.244 80.752 638.444 79.536C639.66 78.32 641.124 77.712 642.836 77.712C644.964 77.712 646.58 78.592 647.684 80.352ZM639.596 87.384C640.508 88.296 641.628 88.752 642.956 88.752C644.284 88.752 645.404 88.296 646.316 87.384C647.228 86.44 647.684 85.312 647.684 84C647.684 82.672 647.228 81.552 646.316 80.64C645.404 79.712 644.284 79.248 642.956 79.248C641.628 79.248 640.508 79.712 639.596 80.64C638.684 81.552 638.228 82.672 638.228 84C638.228 85.312 638.684 86.44 639.596 87.384ZM653.869 81.144C653.869 82.072 654.693 82.752 656.341 83.184C656.805 83.296 657.109 83.376 657.253 83.424C657.397 83.456 657.677 83.544 658.093 83.688C658.525 83.816 658.821 83.928 658.981 84.024C659.157 84.12 659.397 84.272 659.701 84.48C660.005 84.672 660.221 84.872 660.349 85.08C660.477 85.272 660.597 85.528 660.709 85.848C660.821 86.152 660.877 86.48 660.877 86.832C660.877 87.856 660.469 88.688 659.653 89.328C658.869 89.968 657.829 90.288 656.533 90.288C655.413 90.288 654.445 90.04 653.629 89.544C652.813 89.032 652.237 88.36 651.901 87.528L653.245 86.736C653.469 87.36 653.869 87.856 654.445 88.224C655.037 88.576 655.733 88.752 656.533 88.752C657.349 88.752 658.013 88.592 658.525 88.272C659.037 87.952 659.293 87.472 659.293 86.832C659.293 85.904 658.469 85.224 656.821 84.792C656.357 84.68 656.053 84.608 655.909 84.576C655.765 84.528 655.477 84.44 655.045 84.312C654.629 84.168 654.333 84.048 654.157 83.952C653.997 83.856 653.765 83.712 653.461 83.52C653.157 83.312 652.941 83.112 652.813 82.92C652.685 82.712 652.565 82.456 652.453 82.152C652.341 81.832 652.285 81.496 652.285 81.144C652.285 80.168 652.669 79.352 653.437 78.696C654.237 78.04 655.221 77.712 656.389 77.712C657.349 77.712 658.197 77.928 658.933 78.36C659.685 78.792 660.237 79.392 660.589 80.16L659.269 80.928C658.821 79.808 657.861 79.248 656.389 79.248C655.669 79.248 655.069 79.416 654.589 79.752C654.109 80.088 653.869 80.552 653.869 81.144ZM669.019 77.712C670.459 77.712 671.603 78.16 672.451 79.056C673.299 79.936 673.723 81.128 673.723 82.632V90H672.139V82.632C672.139 81.56 671.851 80.728 671.275 80.136C670.715 79.544 669.915 79.248 668.875 79.248C667.675 79.248 666.723 79.624 666.019 80.376C665.331 81.128 664.987 82.24 664.987 83.712V90H663.403V73.2H664.987V79.872C665.883 78.432 667.227 77.712 669.019 77.712ZM687.105 80.352V78H688.689V89.52C688.689 91.248 688.097 92.608 686.913 93.6C685.729 94.592 684.313 95.088 682.665 95.088C679.865 95.088 677.969 94.112 676.977 92.16L678.369 91.368C679.089 92.824 680.521 93.552 682.665 93.552C684.041 93.552 685.121 93.192 685.905 92.472C686.705 91.752 687.105 90.768 687.105 89.52V87.648C686.001 89.408 684.385 90.288 682.257 90.288C680.545 90.288 679.081 89.68 677.865 88.464C676.665 87.248 676.065 85.76 676.065 84C676.065 82.24 676.665 80.752 677.865 79.536C679.081 78.32 680.545 77.712 682.257 77.712C684.385 77.712 686.001 78.592 687.105 80.352ZM679.017 87.384C679.929 88.296 681.049 88.752 682.377 88.752C683.705 88.752 684.825 88.296 685.737 87.384C686.649 86.44 687.105 85.312 687.105 84C687.105 82.672 686.649 81.552 685.737 80.64C684.825 79.712 683.705 79.248 682.377 79.248C681.049 79.248 679.929 79.712 679.017 80.64C678.105 81.552 677.649 82.672 677.649 84C677.649 85.312 678.105 86.44 679.017 87.384ZM702.363 80.352V78H703.947V90H702.363V87.648C701.259 89.408 699.643 90.288 697.515 90.288C695.803 90.288 694.339 89.68 693.123 88.464C691.923 87.248 691.323 85.76 691.323 84C691.323 82.24 691.923 80.752 693.123 79.536C694.339 78.32 695.803 77.712 697.515 77.712C699.643 77.712 701.259 78.592 702.363 80.352ZM694.275 87.384C695.187 88.296 696.307 88.752 697.635 88.752C698.963 88.752 700.083 88.296 700.995 87.384C701.907 86.44 702.363 85.312 702.363 84C702.363 82.672 701.907 81.552 700.995 80.64C700.083 79.712 698.963 79.248 697.635 79.248C696.307 79.248 695.187 79.712 694.275 80.64C693.363 81.552 692.907 82.672 692.907 84C692.907 85.312 693.363 86.44 694.275 87.384ZM353.683 106.712C355.043 106.712 356.131 107.144 356.947 108.008C357.763 108.872 358.171 110.04 358.171 111.512V119H356.587V111.512C356.587 110.488 356.323 109.688 355.795 109.112C355.267 108.536 354.555 108.248 353.659 108.248C352.619 108.248 351.803 108.592 351.211 109.28C350.619 109.968 350.323 110.992 350.323 112.352V119H348.739V111.512C348.739 110.472 348.491 109.672 347.995 109.112C347.499 108.536 346.811 108.248 345.931 108.248C344.923 108.248 344.091 108.6 343.435 109.304C342.795 110.008 342.475 111.024 342.475 112.352V119H340.891V107H342.475V108.752C343.339 107.392 344.563 106.712 346.147 106.712C347.891 106.712 349.107 107.44 349.795 108.896C350.659 107.44 351.955 106.712 353.683 106.712ZM371.555 109.352V107H373.139V119H371.555V116.648C370.451 118.408 368.835 119.288 366.707 119.288C364.995 119.288 363.531 118.68 362.315 117.464C361.115 116.248 360.515 114.76 360.515 113C360.515 111.24 361.115 109.752 362.315 108.536C363.531 107.32 364.995 106.712 366.707 106.712C368.835 106.712 370.451 107.592 371.555 109.352ZM363.467 116.384C364.379 117.296 365.499 117.752 366.827 117.752C368.155 117.752 369.275 117.296 370.187 116.384C371.099 115.44 371.555 114.312 371.555 113C371.555 111.672 371.099 110.552 370.187 109.64C369.275 108.712 368.155 108.248 366.827 108.248C365.499 108.248 364.379 108.712 363.467 109.64C362.555 110.552 362.099 111.672 362.099 113C362.099 114.312 362.555 115.44 363.467 116.384ZM376.474 103.304C376.474 102.984 376.586 102.712 376.81 102.488C377.034 102.264 377.306 102.152 377.626 102.152C377.946 102.152 378.218 102.264 378.442 102.488C378.666 102.712 378.778 102.984 378.778 103.304C378.778 103.624 378.666 103.896 378.442 104.12C378.218 104.344 377.946 104.456 377.626 104.456C377.306 104.456 377.034 104.344 376.81 104.12C376.586 103.896 376.474 103.624 376.474 103.304ZM376.834 119.96V107H378.418V119.96C378.418 121.4 378.042 122.48 377.29 123.2C376.538 123.92 375.474 124.216 374.098 124.088V122.552C375.058 122.648 375.754 122.488 376.186 122.072C376.618 121.672 376.834 120.968 376.834 119.96ZM388.221 106.712C389.933 106.712 391.389 107.32 392.589 108.536C393.805 109.752 394.413 111.24 394.413 113C394.413 114.76 393.805 116.248 392.589 117.464C391.389 118.68 389.933 119.288 388.221 119.288C386.093 119.288 384.477 118.408 383.373 116.648V119H381.789V102.2H383.373V109.352C384.477 107.592 386.093 106.712 388.221 106.712ZM384.741 116.384C385.653 117.296 386.773 117.752 388.101 117.752C389.429 117.752 390.549 117.296 391.461 116.384C392.373 115.44 392.829 114.312 392.829 113C392.829 111.672 392.373 110.552 391.461 109.64C390.549 108.712 389.429 108.248 388.101 108.248C386.773 108.248 385.653 108.712 384.741 109.64C383.829 110.552 383.373 111.672 383.373 113C383.373 114.312 383.829 115.44 384.741 116.384ZM405.495 113.288V107H407.079V119H405.495V117.128C404.599 118.568 403.255 119.288 401.463 119.288C400.023 119.288 398.879 118.848 398.031 117.968C397.183 117.072 396.759 115.872 396.759 114.368V107H398.343V114.368C398.343 115.44 398.623 116.272 399.183 116.864C399.759 117.456 400.567 117.752 401.607 117.752C402.807 117.752 403.751 117.376 404.439 116.624C405.143 115.872 405.495 114.76 405.495 113.288ZM412.014 107V108.992C412.75 107.536 414.014 106.808 415.806 106.808V108.344C414.654 108.344 413.734 108.68 413.046 109.352C412.358 110.008 412.014 111 412.014 112.328V119H410.43V107H412.014ZM430.409 106.712C432.121 106.712 433.577 107.32 434.777 108.536C435.993 109.752 436.601 111.24 436.601 113C436.601 114.76 435.993 116.248 434.777 117.464C433.577 118.68 432.121 119.288 430.409 119.288C428.281 119.288 426.665 118.408 425.561 116.648V119H423.977V102.2H425.561V109.352C426.665 107.592 428.281 106.712 430.409 106.712ZM426.929 116.384C427.841 117.296 428.961 117.752 430.289 117.752C431.617 117.752 432.737 117.296 433.649 116.384C434.561 115.44 435.017 114.312 435.017 113C435.017 111.672 434.561 110.552 433.649 109.64C432.737 108.712 431.617 108.248 430.289 108.248C428.961 108.248 427.841 108.712 426.929 109.64C426.017 110.552 425.561 111.672 425.561 113C425.561 114.312 426.017 115.44 426.929 116.384ZM449.291 117.488C448.059 118.688 446.571 119.288 444.827 119.288C443.051 119.288 441.555 118.688 440.339 117.488C439.123 116.272 438.515 114.776 438.515 113C438.515 111.224 439.123 109.736 440.339 108.536C441.555 107.32 443.051 106.712 444.827 106.712C446.587 106.712 448.075 107.32 449.291 108.536C450.523 109.736 451.139 111.224 451.139 113C451.139 114.76 450.523 116.256 449.291 117.488ZM441.467 116.384C442.379 117.296 443.499 117.752 444.827 117.752C446.155 117.752 447.275 117.296 448.187 116.384C449.099 115.44 449.555 114.312 449.555 113C449.555 111.672 449.099 110.552 448.187 109.64C447.275 108.712 446.155 108.248 444.827 108.248C443.499 108.248 442.379 108.712 441.467 109.64C440.555 110.552 440.099 111.672 440.099 113C440.099 114.312 440.555 115.44 441.467 116.384ZM453.782 107.6H451.862L453.302 102.2H454.742L453.782 107.6ZM459.452 119H457.868V101.48H459.452V119ZM473.133 109.352V107H474.717V119H473.133V116.648C472.029 118.408 470.413 119.288 468.285 119.288C466.573 119.288 465.109 118.68 463.893 117.464C462.693 116.248 462.093 114.76 462.093 113C462.093 111.24 462.693 109.752 463.893 108.536C465.109 107.32 466.573 106.712 468.285 106.712C470.413 106.712 472.029 107.592 473.133 109.352ZM465.045 116.384C465.957 117.296 467.077 117.752 468.405 117.752C469.733 117.752 470.853 117.296 471.765 116.384C472.677 115.44 473.133 114.312 473.133 113C473.133 111.672 472.677 110.552 471.765 109.64C470.853 108.712 469.733 108.248 468.405 108.248C467.077 108.248 465.957 108.712 465.045 109.64C464.133 110.552 463.677 111.672 463.677 113C463.677 114.312 464.133 115.44 465.045 116.384ZM479.655 107V108.992C480.391 107.536 481.655 106.808 483.447 106.808V108.344C482.295 108.344 481.375 108.68 480.687 109.352C479.999 110.008 479.655 111 479.655 112.328V119H478.071V107H479.655ZM497.162 106.712C498.954 106.712 500.386 107.344 501.458 108.608C502.562 109.856 503.114 111.336 503.114 113.048C503.114 113.128 503.098 113.376 503.066 113.792H492.53C492.69 114.992 493.202 115.952 494.066 116.672C494.93 117.392 496.01 117.752 497.306 117.752C499.13 117.752 500.418 117.072 501.17 115.712L502.562 116.528C502.034 117.392 501.306 118.072 500.378 118.568C499.466 119.048 498.434 119.288 497.282 119.288C495.394 119.288 493.858 118.696 492.674 117.512C491.49 116.328 490.898 114.824 490.898 113C490.898 111.192 491.482 109.696 492.65 108.512C493.818 107.312 495.322 106.712 497.162 106.712ZM497.162 108.248C495.914 108.248 494.866 108.616 494.018 109.352C493.186 110.088 492.69 111.056 492.53 112.256H501.482C501.306 110.976 500.818 109.992 500.018 109.304C499.186 108.6 498.234 108.248 497.162 108.248ZM508.897 112.76L515.329 119H513.217L507.217 113.216V119H505.633V102.2H507.217V112.304L512.929 107H515.089L508.897 112.76ZM526.617 109.352V107H528.201V119H526.617V116.648C525.513 118.408 523.897 119.288 521.769 119.288C520.057 119.288 518.593 118.68 517.377 117.464C516.177 116.248 515.577 114.76 515.577 113C515.577 111.24 516.177 109.752 517.377 108.536C518.593 107.32 520.057 106.712 521.769 106.712C523.897 106.712 525.513 107.592 526.617 109.352ZM518.529 116.384C519.441 117.296 520.561 117.752 521.889 117.752C523.217 117.752 524.337 117.296 525.249 116.384C526.161 115.44 526.617 114.312 526.617 113C526.617 111.672 526.161 110.552 525.249 109.64C524.337 108.712 523.217 108.248 521.889 108.248C520.561 108.248 519.441 108.712 518.529 109.64C517.617 110.552 517.161 111.672 517.161 113C517.161 114.312 517.617 115.44 518.529 116.384ZM537.171 106.712C538.611 106.712 539.755 107.16 540.603 108.056C541.451 108.936 541.875 110.128 541.875 111.632V119H540.291V111.632C540.291 110.56 540.003 109.728 539.427 109.136C538.867 108.544 538.067 108.248 537.027 108.248C535.827 108.248 534.875 108.624 534.171 109.376C533.483 110.128 533.139 111.24 533.139 112.712V119H531.555V107H533.139V108.872C534.035 107.432 535.379 106.712 537.171 106.712ZM547.338 117.92C547.338 118.288 547.21 118.6 546.954 118.856C546.698 119.112 546.386 119.24 546.018 119.24C545.65 119.24 545.338 119.112 545.082 118.856C544.826 118.6 544.698 118.288 544.698 117.92C544.698 117.552 544.826 117.24 545.082 116.984C545.338 116.728 545.65 116.6 546.018 116.6C546.386 116.6 546.698 116.728 546.954 116.984C547.21 117.24 547.338 117.552 547.338 117.92Z" fill="#1E1E1E"/>
<path d="M182.619 78.84H182.931C184.691 78.84 186.115 79.376 187.203 80.448C188.307 81.504 188.859 82.88 188.859 84.576C188.859 86.256 188.307 87.64 187.203 88.728C186.099 89.784 184.675 90.312 182.931 90.312C181.171 90.312 179.739 89.784 178.635 88.728C177.531 87.64 176.979 86.256 176.979 84.576C176.979 83.296 177.315 82.168 177.987 81.192L183.315 73.2H186.459L182.619 78.84ZM182.931 87.696C183.859 87.696 184.619 87.416 185.211 86.856C185.803 86.28 186.099 85.52 186.099 84.576C186.099 83.632 185.803 82.88 185.211 82.32C184.619 81.744 183.859 81.456 182.931 81.456C181.971 81.456 181.195 81.744 180.603 82.32C180.027 82.88 179.739 83.632 179.739 84.576C179.739 85.52 180.027 86.28 180.603 86.856C181.195 87.416 181.971 87.696 182.931 87.696ZM201.865 87.936C200.713 89.52 199.097 90.312 197.017 90.312C194.953 90.312 193.329 89.52 192.145 87.936C190.993 86.352 190.417 84.24 190.417 81.6C190.417 78.96 190.993 76.848 192.145 75.264C193.329 73.68 194.953 72.888 197.017 72.888C199.097 72.888 200.713 73.68 201.865 75.264C203.033 76.832 203.617 78.944 203.617 81.6C203.617 84.256 203.033 86.368 201.865 87.936ZM197.017 87.624C198.265 87.624 199.217 87.104 199.873 86.064C200.529 85.024 200.857 83.536 200.857 81.6C200.857 79.664 200.529 78.176 199.873 77.136C199.217 76.096 198.265 75.576 197.017 75.576C195.785 75.576 194.833 76.096 194.161 77.136C193.505 78.176 193.177 79.664 193.177 81.6C193.177 83.536 193.505 85.024 194.161 86.064C194.833 87.104 195.785 87.624 197.017 87.624ZM212.025 73.992C212.777 74.744 213.153 75.656 213.153 76.728C213.153 77.8 212.777 78.712 212.025 79.464C211.289 80.2 210.361 80.568 209.241 80.568C208.105 80.568 207.169 80.2 206.433 79.464C205.681 78.712 205.305 77.8 205.305 76.728C205.305 75.672 205.681 74.768 206.433 74.016C207.185 73.264 208.121 72.888 209.241 72.888C210.361 72.888 211.289 73.256 212.025 73.992ZM209.217 78.456C209.729 78.456 210.145 78.296 210.465 77.976C210.785 77.64 210.945 77.224 210.945 76.728C210.945 76.232 210.785 75.816 210.465 75.48C210.145 75.144 209.729 74.976 209.217 74.976C208.721 74.976 208.313 75.144 207.993 75.48C207.673 75.816 207.513 76.232 207.513 76.728C207.513 77.208 207.673 77.616 207.993 77.952C208.329 78.288 208.737 78.456 209.217 78.456ZM208.017 88.296L206.721 87.528L217.785 75.216L219.081 75.96L208.017 88.296ZM216.921 90.288C215.785 90.288 214.849 89.92 214.113 89.184C213.361 88.432 212.985 87.52 212.985 86.448C212.985 85.392 213.361 84.488 214.113 83.736C214.865 82.984 215.801 82.608 216.921 82.608C218.025 82.608 218.953 82.984 219.705 83.736C220.457 84.488 220.833 85.392 220.833 86.448C220.833 87.52 220.457 88.432 219.705 89.184C218.969 89.92 218.041 90.288 216.921 90.288ZM216.897 88.176C217.409 88.176 217.825 88.016 218.145 87.696C218.465 87.36 218.625 86.944 218.625 86.448C218.625 85.952 218.465 85.536 218.145 85.2C217.825 84.864 217.409 84.696 216.897 84.696C216.401 84.696 215.993 84.864 215.673 85.2C215.353 85.536 215.193 85.952 215.193 86.448C215.193 86.928 215.353 87.336 215.673 87.672C216.009 88.008 216.417 88.176 216.897 88.176ZM249.755 87.792C248.075 89.472 246.019 90.312 243.587 90.312C241.155 90.312 239.091 89.472 237.395 87.792C235.715 86.096 234.875 84.032 234.875 81.6C234.875 79.168 235.715 77.112 237.395 75.432C239.091 73.736 241.155 72.888 243.587 72.888C246.019 72.888 248.075 73.736 249.755 75.432C251.451 77.112 252.299 79.168 252.299 81.6C252.299 84.032 251.451 86.096 249.755 87.792ZM239.339 85.92C240.507 87.056 241.923 87.624 243.587 87.624C245.267 87.624 246.675 87.056 247.811 85.92C248.963 84.768 249.539 83.328 249.539 81.6C249.539 79.872 248.963 78.44 247.811 77.304C246.675 76.152 245.267 75.576 243.587 75.576C241.907 75.576 240.491 76.152 239.339 77.304C238.203 78.44 237.635 79.872 237.635 81.6C237.635 83.312 238.203 84.752 239.339 85.92ZM254.817 73.2H261.417C263.721 73.2 265.633 74.008 267.153 75.624C268.689 77.24 269.457 79.232 269.457 81.6C269.457 83.952 268.689 85.944 267.153 87.576C265.633 89.192 263.721 90 261.417 90H254.817V73.2ZM257.577 87.36H261.417C263.001 87.36 264.289 86.816 265.281 85.728C266.289 84.64 266.793 83.264 266.793 81.6C266.793 79.936 266.289 78.56 265.281 77.472C264.289 76.384 263.001 75.84 261.417 75.84H257.577V87.36ZM285.26 90H282.284L281.108 86.616H273.956L272.78 90H269.78L275.876 73.2H279.188L285.26 90ZM277.532 76.44L274.868 84.024H280.196L277.532 76.44ZM300.195 73.2H303.147V90H300.387V78.024L295.275 86.472H294.939L289.827 78V90H287.067V73.2H290.043L295.107 81.6L300.195 73.2ZM326.536 87.792C324.856 89.472 322.8 90.312 320.368 90.312C317.936 90.312 315.872 89.472 314.176 87.792C312.496 86.096 311.656 84.032 311.656 81.6C311.656 79.168 312.496 77.112 314.176 75.432C315.872 73.736 317.936 72.888 320.368 72.888C322.8 72.888 324.856 73.736 326.536 75.432C328.232 77.112 329.08 79.168 329.08 81.6C329.08 84.032 328.232 86.096 326.536 87.792ZM316.12 85.92C317.288 87.056 318.704 87.624 320.368 87.624C322.048 87.624 323.456 87.056 324.592 85.92C325.744 84.768 326.32 83.328 326.32 81.6C326.32 79.872 325.744 78.44 324.592 77.304C323.456 76.152 322.048 75.576 320.368 75.576C318.688 75.576 317.272 76.152 316.12 77.304C314.984 78.44 314.416 79.872 314.416 81.6C314.416 83.312 314.984 84.752 316.12 85.92ZM331.916 73.2H334.796L333.116 79.44H330.956L331.916 73.2ZM347.681 75.48L340.145 87.36H347.873V90H336.713V87.72L344.249 75.84H336.881V73.2H347.681V75.48ZM350.207 90V73.2H352.967V90H350.207ZM372.093 73.2H375.237L369.381 83.328V90H366.621V83.328L360.765 73.2H363.909L368.013 80.64L372.093 73.2ZM389.888 87.792C388.208 89.472 386.152 90.312 383.72 90.312C381.288 90.312 379.224 89.472 377.528 87.792C375.848 86.096 375.008 84.032 375.008 81.6C375.008 79.168 375.848 77.112 377.528 75.432C379.224 73.736 381.288 72.888 383.72 72.888C386.152 72.888 388.208 73.736 389.888 75.432C391.584 77.112 392.432 79.168 392.432 81.6C392.432 84.032 391.584 86.096 389.888 87.792ZM379.472 85.92C380.64 87.056 382.056 87.624 383.72 87.624C385.4 87.624 386.808 87.056 387.944 85.92C389.096 84.768 389.672 83.328 389.672 81.6C389.672 79.872 389.096 78.44 387.944 77.304C386.808 76.152 385.4 75.576 383.72 75.576C382.04 75.576 380.624 76.152 379.472 77.304C378.336 78.44 377.768 79.872 377.768 81.6C377.768 83.312 378.336 84.752 379.472 85.92ZM411.534 81.6C411.534 83.824 410.798 85.76 409.326 87.408L411.102 89.232L409.158 90.984L407.31 89.088C405.886 89.904 404.39 90.312 402.822 90.312C400.422 90.312 398.366 89.472 396.654 87.792C394.958 86.096 394.11 84.032 394.11 81.6C394.11 79.168 394.958 77.112 396.654 75.432C398.35 73.736 400.406 72.888 402.822 72.888C405.238 72.888 407.294 73.736 408.99 75.432C410.686 77.112 411.534 79.168 411.534 81.6ZM402.822 87.624C403.686 87.624 404.526 87.44 405.342 87.072L402.27 83.928L404.214 82.176L407.43 85.464C408.326 84.344 408.774 83.056 408.774 81.6C408.774 79.888 408.198 78.456 407.046 77.304C405.894 76.152 404.486 75.576 402.822 75.576C401.158 75.576 399.75 76.152 398.598 77.304C397.446 78.456 396.87 79.888 396.87 81.6C396.87 83.312 397.446 84.744 398.598 85.896C399.75 87.048 401.158 87.624 402.822 87.624ZM411.887 73.2H424.127V75.84H419.399V90H416.639V75.84H411.887V73.2ZM426.168 90V73.2H428.928V90H426.168ZM444.885 90H441.861L438.309 83.88H435.045V90H432.285V73.2H439.005C440.509 73.2 441.781 73.728 442.821 74.784C443.877 75.808 444.405 77.08 444.405 78.6C444.405 79.672 444.093 80.656 443.469 81.552C442.861 82.432 442.061 83.072 441.069 83.472L444.885 90ZM439.005 75.792H435.045V81.408H439.005C439.741 81.408 440.365 81.136 440.877 80.592C441.389 80.048 441.645 79.384 441.645 78.6C441.645 77.816 441.389 77.152 440.877 76.608C440.365 76.064 439.741 75.792 439.005 75.792ZM460.132 73.2H463.084V90H460.324V78.024L455.212 86.472H454.876L449.764 78V90H447.004V73.2H449.98L455.044 81.6L460.132 73.2ZM480.354 90H477.378L476.202 86.616H469.05L467.874 90H464.874L470.97 73.2H474.282L480.354 90ZM472.626 76.44L469.962 84.024H475.29L472.626 76.44ZM489.472 81.312H497.872V82.464C497.872 84.768 497.112 86.656 495.592 88.128C494.088 89.584 492.104 90.312 489.64 90.312C487.048 90.312 484.904 89.472 483.208 87.792C481.528 86.112 480.688 84.048 480.688 81.6C480.688 79.168 481.528 77.112 483.208 75.432C484.904 73.736 487 72.888 489.496 72.888C491.048 72.888 492.472 73.248 493.768 73.968C495.08 74.672 496.096 75.64 496.816 76.872L494.44 78.24C493.992 77.424 493.328 76.776 492.448 76.296C491.568 75.816 490.584 75.576 489.496 75.576C487.736 75.576 486.288 76.152 485.152 77.304C484.016 78.472 483.448 79.912 483.448 81.624C483.448 83.352 484.016 84.784 485.152 85.92C486.32 87.056 487.824 87.624 489.664 87.624C491.136 87.624 492.344 87.28 493.288 86.592C494.232 85.904 494.832 84.968 495.088 83.784H489.472V81.312ZM513.682 90H510.706L509.53 86.616H502.378L501.202 90H498.202L504.298 73.2H507.61L513.682 90ZM505.954 76.44L503.29 84.024H508.618L505.954 76.44ZM525.569 84.6V73.2H528.329V90H526.169L518.249 78.6V90H515.489V73.2H517.649L525.569 84.6Z" fill="#FDAA38"/>
<line x1="2.49999" y1="0.00588231" x2="1.49999" y2="255.006" stroke="#FEAB38" stroke-width="3"/>
</svg>
